<?xml version="1.0" encoding="utf-8"?>
<!-- Generator: Adobe Illustrator 26.3.0, SVG Export Plug-In . SVG Version: 6.00 Build 0)  -->
<svg version="1.1" id="Layer_1" xmlns="http://www.w3.org/2000/svg" xmlns:xlink="http://www.w3.org/1999/xlink" x="0px" y="0px"
	 viewBox="0 0 396 116" style="enable-background:new 0 0 396 116;" xml:space="preserve">
<style type="text/css">
	.st0{fill:#111111;}
</style>
<g>
	<g id="name_00000051354249313924241900000017423855169585609136_">
		<path class="st0" d="M16.57,51.16v40.56H0.37V54.4c0-18.12,9.12-27.12,27.24-27.12c8.16,0,14.4,1.8,18.96,5.4
			c4.56-3.48,10.8-5.16,18.96-5.16c18.12,0,27.12,9,27,27.12v37.32h-8.28c-5.28-0.36-7.92-2.88-7.92-7.92V51.4
			c-0.36-6.6-3.96-9.84-11.04-9.84s-10.68,3.24-10.8,9.84v40.32H38.41V51.16c-0.36-6.6-3.96-9.84-11.04-9.84
			S16.69,44.56,16.57,51.16z"/>
		<path class="st0" d="M110.05,10.12c5.28,0,7.8,2.64,7.68,7.8v4.68h-15.96V10.12H110.05z M110.05,28.24c5.16,0,7.68,2.52,7.68,7.68
			v55.8h-15.96V28.24H110.05z"/>
		<path class="st0" d="M305.16,66.4c0,10.92-2.76,18.12-8.4,21.6c-5.64,3.24-11.88,4.92-18.72,4.92c-6.6,0-12.48-1.8-18-5.4
			c-5.52-3.48-8.28-10.44-8.28-21.12V28.24h15.96v41.4c0,7.08,3.6,10.56,10.8,10.56c7.2,0,10.8-3.48,10.8-10.56V36.16
			c-0.12-5.28,2.4-7.92,7.68-7.92h8.16V66.4z"/>
		<path class="st0" d="M329.77,39.64h-1.68V74.8c0,2.64,1.56,4.08,4.68,4.08h4.92V91c-5.16,0.48-10.8,0.48-16.8-0.12
			c-6-0.6-8.88-4.32-8.76-11.4V10.12h8.28c4.2,0,7.68,3.84,7.68,8.04v10.08h9.6v3.48C337.69,36.28,334.21,39.64,329.77,39.64z"/>
		<path class="st0" d="M362.04,39.64h-1.68V74.8c0,2.64,1.56,4.08,4.68,4.08h4.92V91c-5.16,0.48-10.8,0.48-16.8-0.12
			c-6-0.6-8.88-4.32-8.76-11.4V10.12h8.28c4.2,0,7.68,3.84,7.68,8.04v10.08h9.6v3.48C369.96,36.28,366.49,39.64,362.04,39.64z"/>
		<path class="st0" d="M387.36,10.12c5.28,0,7.8,2.64,7.68,7.8v4.68h-15.96V10.12H387.36z M387.36,28.24c5.16,0,7.68,2.52,7.68,7.68
			v55.8h-15.96V28.24H387.36z"/>
	</g>
	<path id="quad_00000121266546110408564300000002702804473989983368_" class="st0" d="M234.01,91.72c-5.28-0.36-7.92-2.88-7.92-7.92
		V51.16c-0.36-6.6-3.96-9.84-11.04-9.84c-7.08,0-10.68,3.24-10.8,9.84v32.2c0,4.61-3.74,8.35-8.35,8.35h-7.85l0-37.32
		c0-14.94,12.09-27.06,27.04-27.12c14.66-0.05,23.3,5.75,26.08,17.45V22.58c0-11.59-9.39-20.98-20.98-20.98h-71.96
		c-11.59,0-20.98,9.39-20.98,20.98v24.94c2.14-13.51,11.06-20.24,26.72-20.24c18.12,0,27,9,26.88,27.12v37.32h-8.16
		c-5.28-0.36-7.92-2.88-7.92-7.92V51.16c-0.36-6.6-3.96-9.84-11.04-9.84s-10.68,3.24-10.8,9.84v32.2c0,4.61-3.74,8.35-8.35,8.35
		h-7.32v2.82c0,11.59,9.39,20.98,20.98,20.98h71.96c11.59,0,20.98-9.39,20.98-20.98v-2.82H234.01z"/>
</g>
</svg>
