<?xml version="1.0" encoding="utf-8"?>
<!-- Generator: Adobe Illustrator 26.3.0, SVG Export Plug-In . SVG Version: 6.00 Build 0)  -->
<svg version="1.1" id="Layer_1" xmlns="http://www.w3.org/2000/svg" xmlns:xlink="http://www.w3.org/1999/xlink" x="0px" y="0px"
	 viewBox="0 0 512 512" style="enable-background:new 0 0 512 512;" xml:space="preserve">
<style type="text/css">
	.st0{fill:#111111;}
</style>
<path id="quad_00000121266546110408564300000002702804473989983368_" class="st0" d="M480.71,405.04
	c-23.78-1.62-35.66-12.94-35.66-35.6v-146.7c-1.62-29.67-17.83-44.23-49.71-44.23c-31.88,0-48.09,14.56-48.63,44.23v144.74
	c0,20.74-16.84,37.55-37.62,37.55h-35.33l0-167.73c0-67.16,54.46-121.64,121.74-121.89c66.01-0.24,104.93,25.86,117.44,78.45V94.28
	C512.94,42.21,470.65,0,418.49,0H94.46C42.29,0,0,42.21,0,94.28v112.11c9.65-60.72,49.82-90.98,120.3-90.98
	c81.59,0,121.57,40.45,121.03,121.89v167.73H204.6c-23.78-1.62-35.66-12.94-35.66-35.6v-146.7c-1.62-29.67-17.83-44.23-49.71-44.23
	s-48.09,14.56-48.63,44.23v144.74c0,20.74-16.84,37.55-37.62,37.55H0v12.68C0,469.79,42.29,512,94.46,512h324.03
	c52.17,0,94.46-42.21,94.46-94.28v-12.68H480.71z"/>
</svg>
